<svg width="313" height="474" xmlns="http://www.w3.org/2000/svg" xmlns:xlink="http://www.w3.org/1999/xlink" xml:space="preserve" overflow="hidden"><defs><clipPath id="clip0"><rect x="319" y="123" width="313" height="474"/></clipPath></defs><g clip-path="url(#clip0)" transform="translate(-319 -123)"><path d="M549.976 130.407 705.33 220.446 705.33 397.567 549.976 487.608 394.622 397.567 394.622 220.446Z" fill="#317689" fill-rule="evenodd" transform="matrix(1.00008 0 0 1 -73.3841 -7.4067)"/><path d="M549.976 229.062 623.684 271.782 623.684 350.768 549.976 393.488 476.268 350.768 476.268 271.782Z" stroke="#FFFFFF" stroke-width="9.07177" stroke-miterlimit="8" fill="#CD4560" fill-rule="evenodd" transform="matrix(1.00008 0 0 1 -73.3841 -7.4067)"/><path d="M549.976 210.919 582.861 229.978 582.861 266.701 549.976 285.761 517.091 266.701 517.091 229.978Z" stroke="#FFFFFF" stroke-width="9.07177" stroke-miterlimit="8" fill="#317689" fill-rule="evenodd" transform="matrix(1.00008 0 0 1 -73.3841 -7.4067)"/><path d="M517.091 230.196 551.961 249.29" stroke="#FFFFFF" stroke-width="9.07177" stroke-miterlimit="8" fill="#317689" fill-rule="evenodd" transform="matrix(1.00008 0 0 1 -73.3841 -7.4067)"/><path d="M0 0 35.4555 19.0937" stroke="#FFFFFF" stroke-width="9.07177" stroke-miterlimit="8" fill="#317689" fill-rule="evenodd" transform="matrix(1.00008 0 0 -1 474.366 241.883)"/><path d="M0 0 0.000119052 37.2684" stroke="#FFFFFF" stroke-width="9.07177" stroke-miterlimit="8" fill="#317689" fill-rule="evenodd" transform="matrix(1.00008 0 0 -1 476.634 278.201)"/><path d="M491.577 299.368 525.029 318.757 525.029 353.688 491.577 373.077 458.124 353.688 458.124 318.757Z" stroke="#FFFFFF" stroke-width="9.07177" stroke-miterlimit="8" fill="#317689" fill-rule="evenodd" transform="matrix(1.00008 0 0 1 -73.3841 -7.4067)"/><path d="M458.124 318.646 492.994 337.74" stroke="#FFFFFF" stroke-width="9.07177" stroke-miterlimit="8" fill="#317689" fill-rule="evenodd" transform="matrix(1.00008 0 0 1 -73.3841 -7.4067)"/><path d="M0 0 35.4555 19.0937" stroke="#FFFFFF" stroke-width="9.07177" stroke-miterlimit="8" fill="#317689" fill-rule="evenodd" transform="matrix(1.00008 0 0 -1 416.529 330.333)"/><path d="M0 0 0.000119052 37.2684" stroke="#FFFFFF" stroke-width="9.07177" stroke-miterlimit="8" fill="#317689" fill-rule="evenodd" transform="matrix(1.00008 0 0 -1 418.797 366.651)"/><path d="M608.943 299.368 641.828 318.428 641.828 355.151 608.943 374.211 576.057 355.151 576.057 318.428Z" stroke="#FFFFFF" stroke-width="9.07177" stroke-miterlimit="8" fill="#317689" fill-rule="evenodd" transform="matrix(1.00008 0 0 1 -73.3841 -7.4067)"/><path d="M576.057 318.646 610.927 337.74" stroke="#FFFFFF" stroke-width="9.07177" stroke-miterlimit="8" fill="#317689" fill-rule="evenodd" transform="matrix(1.00008 0 0 1 -73.3841 -7.4067)"/><path d="M0 0 35.4555 19.0937" stroke="#FFFFFF" stroke-width="9.07177" stroke-miterlimit="8" fill="#317689" fill-rule="evenodd" transform="matrix(1.00008 0 0 -1 533.337 330.333)"/><path d="M0 0 0.000119052 37.2684" stroke="#FFFFFF" stroke-width="9.07177" stroke-miterlimit="8" fill="#317689" fill-rule="evenodd" transform="matrix(1.00008 0 0 -1 535.605 366.651)"/><path d="M412.536 519.359 428.071 519.359 447.919 604.407 435.217 604.407 430.73 583.48 409.639 583.48 405.031 604.407 392.354 604.407 412.536 519.359ZM420.135 529.452 411.772 572.323 428.618 572.323 420.135 529.452Z" fill="#317689" fill-rule="evenodd" transform="matrix(1.00008 0 0 1 -73.3841 -7.4067)"/><path d="M487.607 519.359 505.751 519.359 505.751 530.635 486.414 530.635C483.804 530.635 481.705 531.388 480.117 532.895 478.528 534.402 477.733 536.203 477.733 538.296L477.733 585.35C477.733 587.513 478.53 589.351 480.125 590.863 481.72 592.375 483.816 593.132 486.414 593.132L505.751 593.132 505.751 604.407 487.607 604.407C480.355 604.407 474.762 602.624 470.828 599.059 466.895 595.494 464.928 590.175 464.928 583.104L464.928 540.541C464.928 533.541 466.892 528.261 470.821 524.7 474.751 521.139 480.346 519.359 487.607 519.359Z" fill="#317689" fill-rule="evenodd" transform="matrix(1.00008 0 0 1 -73.3841 -7.4067)"/><path d="M553.377 519.359 571.522 519.359 571.522 530.635 552.184 530.635C549.575 530.635 547.476 531.388 545.887 532.895 544.298 534.402 543.503 536.203 543.503 538.296L543.503 585.35C543.503 587.513 544.301 589.351 545.895 590.863 547.49 592.375 549.586 593.132 552.184 593.132L571.522 593.132 571.522 604.407 553.377 604.407C546.125 604.407 540.532 602.624 536.599 599.059 532.665 595.494 530.699 590.175 530.699 583.104L530.699 540.541C530.699 533.541 532.663 528.261 536.592 524.7 540.521 521.139 546.116 519.359 553.377 519.359Z" fill="#317689" fill-rule="evenodd" transform="matrix(1.00008 0 0 1 -73.3841 -7.4067)"/><path d="M662.239 519.359 675.139 519.359 675.139 593.132 701.928 593.132 701.928 604.407 662.239 604.407 662.239 519.359Z" fill="#317689" fill-rule="evenodd" transform="matrix(1.00008 0 0 1 -73.3841 -7.4067)"/><path d="M615.601 543.172 621.199 543.172C627.207 543.172 631.771 544.841 634.887 548.18 638.002 551.518 639.56 556.301 639.56 562.529L639.56 579.057 607.883 579.057 607.883 586.699C607.883 588.853 608.514 590.488 609.775 591.605 611.037 592.722 612.978 593.28 615.601 593.28L635.75 593.28 635.75 604.407 616.792 604.407C609.471 604.407 604.064 602.826 600.573 599.663 597.081 596.501 595.335 591.393 595.335 584.341L595.335 563.118C595.335 556.077 596.915 550.992 600.074 547.865 603.233 544.736 608.409 543.172 615.601 543.172ZM614.409 554.299C611.925 554.299 610.216 554.825 609.283 555.876 608.35 556.927 607.883 558.556 607.883 560.76L607.883 567.932 627.248 567.932 627.248 560.17C627.248 558.477 626.687 557.075 625.565 555.965 624.443 554.854 623.028 554.299 621.318 554.299L614.409 554.299Z" fill="#CD4560" fill-rule="evenodd" transform="matrix(1.00008 0 0 1 -73.3841 -7.4067)"/></g></svg>